<?xml version="1.0" standalone="no"?>
<!DOCTYPE svg PUBLIC "-//W3C//DTD SVG 20010904//EN"
 "http://www.w3.org/TR/2001/REC-SVG-20010904/DTD/svg10.dtd">
<svg version="1.0" xmlns="http://www.w3.org/2000/svg"
 width="463.000000pt" height="186.000000pt" viewBox="0 0 463.000000 186.000000"
 preserveAspectRatio="xMidYMid meet">

<g transform="translate(0.000000,186.000000) scale(0.100000,-0.100000)"
fill="#000000" stroke="none">
<path d="M90 1764 c0 -8 14 -20 30 -25 l30 -11 0 -756 c0 -417 -4 -774 -9
-795 -5 -22 -19 -49 -30 -61 -26 -27 -27 -46 -3 -46 41 0 137 37 140 53 3 12
-3 17 -20 17 -13 0 -29 5 -36 12 -9 9 -12 163 -11 637 l1 626 49 -625 c27
-344 52 -636 55 -648 4 -20 9 -23 32 -17 15 3 32 12 38 18 6 7 28 183 48 397
21 212 50 502 66 645 l28 260 1 -622 1 -623 -25 0 c-24 0 -44 -24 -32 -37 5
-4 188 33 260 53 28 9 21 37 -8 32 l-25 -5 0 678 0 679 30 0 c29 0 40 13 21
25 -11 6 -224 55 -228 52 -1 -1 -20 -176 -43 -387 -22 -212 -43 -403 -47 -425
-9 -48 -8 -51 -47 460 -15 193 -30 361 -34 374 -6 20 -22 28 -107 53 -116 32
-125 33 -125 12z"/>
<path d="M4400 1756 c-42 -12 -81 -26 -88 -30 -21 -13 -8 -30 23 -31 61 0 57
-69 -25 -379 l-36 -139 -48 232 c-26 128 -45 238 -42 246 3 8 16 15 30 15 25
0 44 28 23 35 -6 3 -73 -10 -147 -28 -98 -23 -135 -37 -135 -47 0 -10 8 -14
22 -12 19 3 23 -5 37 -65 19 -86 143 -676 151 -724 5 -28 -9 -90 -64 -280 -86
-294 -100 -319 -174 -305 l-37 7 0 674 c0 672 0 675 20 675 19 0 38 25 28 35
-2 3 -66 -8 -141 -22 -91 -18 -137 -32 -137 -40 0 -7 11 -13 25 -13 l25 0 0
-635 0 -635 -31 0 c-49 0 -29 -24 32 -36 266 -57 397 -85 417 -90 16 -5 22 -2
22 10 0 9 -8 19 -17 23 -42 14 -63 45 -63 92 0 42 111 453 117 434 6 -19 103
-535 103 -548 0 -11 -8 -13 -31 -8 -26 5 -30 3 -28 -12 3 -14 33 -26 124 -51
66 -18 128 -33 138 -34 24 0 22 31 -3 37 -24 6 -20 -8 -65 253 -20 113 -59
327 -87 476 l-51 271 67 274 c66 269 99 359 130 359 15 0 28 24 19 34 -9 8
-18 7 -103 -18z"/>
<path d="M942 1573 c-41 -20 -78 -67 -102 -130 -36 -95 -42 -183 -38 -553 4
-321 6 -362 25 -427 30 -107 66 -161 120 -185 53 -23 87 -19 149 17 83 49 135
166 156 349 15 141 4 557 -17 655 -31 141 -90 236 -170 272 -49 23 -80 23
-123 2z m94 -31 c32 -21 34 -51 34 -627 0 -378 -4 -583 -10 -596 -14 -25 -56
-25 -70 0 -6 13 -10 221 -10 606 0 385 4 593 10 606 11 20 27 24 46 11z"/>
<path d="M3276 1529 c-76 -10 -141 -20 -143 -23 -12 -12 11 -27 33 -22 l24 6
0 -566 0 -565 -27 3 c-14 2 -28 -2 -30 -9 -5 -13 17 -18 147 -33 82 -10 205
-28 303 -45 l27 -4 0 269 c0 245 -5 302 -24 254 -3 -9 -6 -28 -6 -44 0 -51
-30 -204 -56 -282 -32 -97 -59 -128 -114 -128 l-40 0 0 585 c0 550 1 585 18
585 26 0 49 17 37 28 -6 5 -69 1 -149 -9z"/>
<path d="M1300 1516 c0 -10 9 -16 25 -16 17 0 25 -6 25 -17 1 -72 120 -1127
128 -1135 5 -5 29 -7 56 -3 36 6 47 12 51 29 2 11 34 247 70 523 36 276 69
513 75 527 5 13 18 27 29 31 49 15 1 35 -85 35 -48 0 -58 -15 -20 -30 13 -5
27 -14 31 -20 4 -7 -15 -181 -41 -388 l-49 -377 -32 370 c-40 462 -39 425 -9
425 25 0 43 15 29 23 -5 3 -53 10 -108 16 -55 6 -117 14 -137 17 -30 5 -38 3
-38 -10z"/>
<path d="M2920 1494 c-241 -20 -296 -28 -290 -39 3 -5 15 -9 28 -7 l22 3 0
-526 0 -525 -30 0 c-16 0 -30 -4 -30 -9 0 -10 51 -17 203 -27 85 -5 97 -4 97
10 0 11 -9 16 -30 16 l-30 0 0 265 0 265 26 -12 c42 -19 66 -81 72 -181 3 -58
9 -86 16 -84 16 5 16 579 0 584 -7 2 -13 -25 -16 -80 -7 -113 -47 -197 -92
-197 -3 0 -6 115 -6 255 l0 255 41 0 c32 0 47 -6 68 -29 40 -42 77 -168 96
-323 4 -27 10 -48 16 -48 5 0 9 91 9 225 0 124 -1 224 -2 224 -2 -1 -77 -8
-168 -15z"/>
<path d="M1810 1466 c0 -10 9 -16 25 -16 l25 0 0 -524 0 -525 -27 -3 c-14 -2
-29 -9 -31 -17 -4 -12 15 -13 119 -7 68 4 247 7 397 6 l272 0 -2 226 c-2 158
-6 228 -14 231 -8 3 -14 -21 -19 -64 -22 -220 -99 -363 -195 -363 -20 0 -20 5
-20 255 0 273 2 281 48 232 32 -34 50 -84 57 -165 15 -147 25 -64 25 203 0
268 -10 352 -24 199 -4 -42 -14 -93 -22 -114 -15 -36 -50 -70 -74 -70 -7 0
-10 83 -10 246 l0 247 46 -6 c28 -3 54 -13 69 -27 31 -29 71 -131 85 -217 20
-115 25 -135 35 -136 6 -1 11 74 13 205 l2 206 -277 0 c-153 0 -329 3 -390 7
-101 7 -113 6 -113 -9z m350 -540 l0 -514 -32 -3 c-18 -2 -45 -3 -60 -1 l-28
3 0 515 0 514 60 0 60 0 0 -514z"/>
</g>
</svg>
